<svg height="511pt" viewBox="1 1 511.99975 511" width="511pt" xmlns="http://www.w3.org/2000/svg"><path d="m500.757812 262.121094c0 138.28125-112.097656 250.378906-250.378906 250.378906s-250.378906-112.097656-250.378906-250.378906 112.097656-250.378906 250.378906-250.378906 250.378906 112.097656 250.378906 250.378906zm0 0" fill="#fdd194"/><path d="m172.710938 102.695312v316.804688c0 16.933594-13.726563 30.660156-30.660157 30.660156h-56.996093c-7.179688-6.308594-13.984376-13.019531-20.382813-20.101562-13.613281-15.066406-21.066406-34.699219-21.066406-55.003906v-244.332032c0-6.324218 1.984375-12.476562 5.59375-17.671875 10.4375-15.011719 23.988281-28.820312 38.207031-41.015625h54.644531c16.933594 0 30.660157 13.726563 30.660157 30.660156zm0 0" fill="#6e61b5"/><path d="m428.199219 450.160156h-296.367188c-16.933593 0-30.660156-13.726562-30.660156-30.660156v-316.804688c0-16.933593 13.726563-30.660156 30.660156-30.660156h296.367188c16.933593 0 30.660156 13.726563 30.660156 30.660156v316.804688c0 16.933594-13.726563 30.660156-30.660156 30.660156zm0 0" fill="#8279c0"/><path d="m411.847656 291.757812c-16.933594 0-30.65625-13.726562-30.65625-30.660156 0-16.929687 13.722656-30.65625 30.65625-30.65625s30.660156 13.726563 30.660156 30.65625c0 16.933594-13.726562 30.660156-30.660156 30.660156zm-15.328125 15.328126c-5.644531 0-10.21875 4.574218-10.21875 10.21875v40.878906c0 5.644531 4.574219 10.21875 10.21875 10.21875s10.21875-4.574219 10.21875-10.21875v-40.878906c0-5.644532-4.574219-10.21875-10.21875-10.21875zm30.65625 0c-5.640625 0-10.21875 4.574218-10.21875 10.21875v40.878906c0 5.644531 4.578125 10.21875 10.21875 10.21875 5.644531 0 10.222657-4.574219 10.222657-10.21875v-40.878906c0-5.644532-4.578126-10.21875-10.222657-10.21875zm-30.65625-91.976563c5.644531 0 10.21875-4.574219 10.21875-10.21875v-40.878906c0-5.644531-4.574219-10.21875-10.21875-10.21875s-10.21875 4.574219-10.21875 10.21875v40.878906c0 5.644531 4.574219 10.21875 10.21875 10.21875zm30.65625 0c5.644531 0 10.222657-4.574219 10.222657-10.21875v-40.878906c0-5.644531-4.578126-10.21875-10.222657-10.21875-5.640625 0-10.21875 4.574219-10.21875 10.21875v40.878906c0 5.644531 4.578125 10.21875 10.21875 10.21875zm0 0" fill="#6354b0"/><path d="m366.875 128.242188v265.710937c0 8.464844-6.863281 15.328125-15.328125 15.328125h-276.441406l-45.320313-265.707031c5.769532-10.710938 12.300782-20.957031 19.511719-30.660157h302.25c8.464844 0 15.328125 6.863282 15.328125 15.328126zm0 0" fill="#463b83"/><path d="m366.882812 128.242188v265.710937c0 8.464844-6.863281 15.328125-15.328124 15.328125h-250.382813v-296.367188h250.382813c8.464843 0 15.328124 6.863282 15.328124 15.328126zm0 0" fill="#54469b"/><path d="m336.222656 158.902344v255.488281c0 8.46875-6.863281 15.332031-15.328125 15.332031h-256.527343c-40.015626-44.378906-64.367188-103.144531-64.367188-167.601562 0-42.890625 10.78125-83.257813 29.785156-118.546875h291.109375c8.464844 0 15.328125 6.863281 15.328125 15.328125zm0 0" fill="#ececf1"/><path d="m336.222656 158.902344v255.488281c0 8.46875-6.863281 15.332031-15.328125 15.332031h-219.722656v-286.148437h219.722656c8.464844 0 15.328125 6.863281 15.328125 15.328125zm0 0" fill="#fff5f5"/><path d="m305.566406 183.941406v205.414063c0 2.820312-2.289062 5.109375-5.109375 5.109375h-262.640625c-24.027344-38.394532-37.8242185-83.75-37.816406-132.34375.00390625-29.203125 4.996094-57.230469 14.1875-83.289063h286.269531c2.820313 0 5.109375 2.285157 5.109375 5.109375zm0 0" fill="#8ed0e1"/><path d="m182.929688 209.488281c0 5.644531-4.574219 10.21875-10.21875 10.21875h-40.878907c-5.644531 0-10.21875-4.574219-10.21875-10.21875s4.574219-10.21875 10.21875-10.21875h40.878907c5.644531 0 10.21875 4.574219 10.21875 10.21875zm-122.632813 30.660157c5.644531 0 10.21875-4.574219 10.21875-10.21875 0-5.644532-4.574219-10.222657-10.21875-10.222657h-40.878906c-5.644531 0-10.21875 4.578125-10.21875 10.222657 0 5.644531 4.574219 10.21875 10.21875 10.21875zm10.21875 61.316406h-40.878906c-5.644531 0-10.21875 4.574218-10.21875 10.21875 0 5.644531 4.574219 10.222656 10.21875 10.222656h40.878906c5.644531 0 10.21875-4.578125 10.21875-10.222656 0-5.644532-4.574219-10.21875-10.21875-10.21875zm224.828125-102.195313h-30.65625c-5.644531 0-10.21875 4.574219-10.21875 10.21875s4.574219 10.21875 10.21875 10.21875h30.65625c5.644531 0 10.222656-4.574219 10.222656-10.21875s-4.578125-10.21875-10.222656-10.21875zm0 0" fill="#b0dde9"/><path d="m172.710938 270.808594c0 39.507812-32.027344 71.535156-71.539063 71.535156-39.507813 0-71.535156-32.027344-71.535156-71.535156 0-39.511719 32.027343-71.539063 71.535156-71.539063 39.511719 0 71.539063 32.027344 71.539063 71.539063zm0 0" fill="#ffe899"/><path d="m172.648438 267.773438c.496093 14.339843-3.050782 27.773437-9.761719 39.199218-11.421875 6.707032-24.859375 10.355469-39.199219 9.757813-36.921875-1.53125-67.601562-31.496094-68.441406-68.4375-.742188-32.84375 31.800781-49.550781 48.960937-48.960938 37.109375 1.277344 67.097657 29.703125 68.441407 68.441407zm0 0" fill="#fff2b4"/><path d="m265.945312 252.507812c11.910157 10.191407 25.46875 22.019532 39.621094 34.792969v102.054688c0 2.820312-2.289062 5.109375-5.109375 5.109375h-262.660156c-2.730469-4.375-5.324219-8.832032-7.785156-13.378906 37.5625-44.902344 96.515625-97.601563 135.699219-131.011719 3.480468-2.96875 7.898437-4.59375 12.476562-4.59375h68.730469c6.980469 0 13.722656 2.488281 19.027343 7.027343zm0 0" fill="#09a66d"/><path d="m257.691406 245.480469c13.703125 11.605469 30.339844 25.992187 47.875 41.820312v75.480469h-156.96875c-22.515625 0-35.132812-26.046875-21.078125-43.636719 15.4375-19.320312 44.824219-50.699219 66.894531-73.664062zm0 0" fill="#22b27f"/><path d="m267.476562 253.816406c-6.347656 4.269532-13.980468 6.769532-22.207031 6.769532-6.238281 0-12.140625-1.433594-17.398437-3.992188-5.820313-2.828125-12.527344-2.828125-18.34375 0-5.257813 2.558594-11.160156 3.992188-17.402344 3.992188-10.269531 0-19.628906-3.894532-26.695312-10.277344 23.945312-20.425782 40.589843-33.710938 40.589843-33.710938 5.09375-3.332031 11.671875-3.332031 16.769531 0 0 0 18.558594 14.816406 44.6875 37.21875zm0 0" fill="#ececf1"/><path d="m222.789062 216.597656s18.558594 14.816406 44.6875 37.21875c-6.347656 4.269532-13.980468 6.773438-22.207031 6.773438-6.238281 0-12.140625-1.4375-17.398437-3.996094-5.820313-2.828125-12.527344-2.828125-18.34375 0-5.257813 2.558594-11.160156 3.996094-17.402344 3.996094-3.714844 0-7.3125-.519532-10.726562-1.472656 22.011718-23.230469 41.230468-42.625 41.390624-42.519532zm0 0" fill="#fff5f5"/><path d="m152.25 338.425781c-.351562 5.429688-5.105469 9.539063-10.546875 9.539063h-40.53125c-5.640625 0-10.21875 4.574218-10.21875 10.21875 0 5.644531-4.574219 10.21875-10.21875 10.21875h-40.878906c-5.867188 0-10.582031-4.945313-10.195313-10.898438.351563-5.433594 5.105469-9.539062 10.546875-9.539062h9.867188c5.644531 0 10.222656-4.578125 10.222656-10.222656 0-5.644532 4.574219-10.21875 10.21875-10.21875h71.535156c5.871094 0 10.582031 4.949218 10.199219 10.902343zm143.09375-98.277343c-5.644531 0-10.21875 4.574218-10.21875 10.21875 0 5.644531 4.574219 10.21875 10.21875 10.21875h5.113281c2.820313 0 5.109375 2.289062 5.109375 5.109374v-25.546874zm5.113281 30.660156h-56.210937c-5.644532 0-10.21875 4.574218-10.21875 10.21875 0 5.644531 4.574218 10.21875 10.21875 10.21875h61.320312v-25.550782c0 2.824219-2.289062 5.113282-5.109375 5.113282zm0 0" fill="#b0dde9"/><path d="m507.511719 31.003906c-5.988281 5.988282-15.691407 5.988282-21.679688 0l-4.335937-4.335937c-5.988282-5.984375-5.988282-15.691407 0-21.679688 5.984375-5.984375 15.691406-5.984375 21.679687 0l4.335938 4.335938c5.984375 5.988281 5.984375 15.691406 0 21.679687zm-226.1875 200.167969c-3.988281-3.988281-10.460938-3.988281-14.449219 0l-7.226562 7.226563c-3.992188 3.992187-3.992188 10.460937 0 14.453124 3.988281 3.992188 10.460937 3.992188 14.453124 0l7.222657-7.226562c3.992187-3.988281 3.992187-10.460938 0-14.453125zm0 0" fill="#fd5757"/><path d="m279.882812 244.179688-11.5625-11.5625c-5.988281-5.984376-5.988281-15.691407 0-21.675782l195.109376-195.113281c5.988281-5.984375 15.691406-5.984375 21.679687 0l11.5625 11.5625c5.984375 5.988281 5.984375 15.691406 0 21.679687l-195.113281 195.109376c-5.984375 5.988281-15.691406 5.988281-21.675782 0zm0 0" fill="#fd7a7a"/><path d="m496.671875 49.070312-133.6875 133.6875c-3.992187 3.988282-10.460937 3.988282-14.453125 0l-4.335938-4.335937c-3.992187-3.992187-3.992187-10.460937 0-14.453125l137.300782-137.300781c3.988281-3.988281 10.460937-3.988281 14.449218 0l.726563.722656c5.984375 5.988281 5.984375 15.691406 0 21.679687zm0 0" fill="#fd9898"/></svg>