<svg height="512pt" viewBox="0 0 512 512" width="512pt" xmlns="http://www.w3.org/2000/svg"><path d="m512 256c0 141.386719-114.613281 256-256 256s-256-114.613281-256-256 114.613281-256 256-256 256 114.613281 256 256zm0 0" fill="#0fe1c2"/><path d="m449.5 0h-387c-3.589844 0-6.5 2.910156-6.5 6.5v409.308594c20.601562 25.742187 46.058594 47.421875 75 63.652344 12.699219 7.117187 26.070312 13.1875 40 18.078124 26.601562 9.371094 55.199219 14.460938 85 14.460938 45.398438 0 88.03125-11.820312 125-32.539062 28.941406-16.230469 54.398438-37.910157 75-63.652344v-409.308594c0-3.589844-2.910156-6.5-6.5-6.5zm-48.5 26.5c0-3.589844 2.910156-6.5 6.5-6.5h22c3.589844 0 6.5 2.910156 6.5 6.5v21.671875c0 3.589844-2.910156 6.5-6.5 6.5h-22c-3.589844 0-6.5-2.910156-6.5-6.5zm-290 404.328125c0 3.59375-2.910156 6.5-6.5 6.5h-22c-3.589844 0-6.5-2.90625-6.5-6.5v-21.65625c0-3.59375 2.910156-6.5 6.5-6.5h22c3.589844 0 6.5 2.90625 6.5 6.5zm0-54.65625c0 3.589844-2.910156 6.5-6.5 6.5h-22c-3.589844 0-6.5-2.910156-6.5-6.5v-21.671875c0-3.589844 2.910156-6.5 6.5-6.5h22c3.589844 0 6.5 2.910156 6.5 6.5zm0-54.671875c0 3.589844-2.910156 6.5-6.5 6.5h-22c-3.589844 0-6.5-2.910156-6.5-6.5v-21.671875c0-3.589844 2.910156-6.5 6.5-6.5h22c3.589844 0 6.5 2.910156 6.5 6.5zm0-54.671875c0 3.59375-2.910156 6.5-6.5 6.5h-22c-3.589844 0-6.5-2.90625-6.5-6.5v-21.65625c0-3.59375 2.910156-6.5 6.5-6.5h22c3.589844 0 6.5 2.90625 6.5 6.5zm0-54.65625c0 3.589844-2.910156 6.5-6.5 6.5h-22c-3.589844 0-6.5-2.910156-6.5-6.5v-21.671875c0-3.589844 2.910156-6.5 6.5-6.5h22c3.589844 0 6.5 2.910156 6.5 6.5zm0-54.671875c0 3.589844-2.910156 6.5-6.5 6.5h-22c-3.589844 0-6.5-2.910156-6.5-6.5v-21.671875c0-3.589844 2.910156-6.5 6.5-6.5h22c3.589844 0 6.5 2.910156 6.5 6.5zm0-54.671875c0 3.59375-2.910156 6.5-6.5 6.5h-22c-3.589844 0-6.5-2.90625-6.5-6.5v-21.65625c0-3.59375 2.910156-6.5 6.5-6.5h22c3.589844 0 6.5 2.90625 6.5 6.5zm0-54.65625c0 3.589844-2.910156 6.5-6.5 6.5h-22c-3.589844 0-6.5-2.910156-6.5-6.5v-21.671875c0-3.589844 2.910156-6.5 6.5-6.5h22c3.589844 0 6.5 2.910156 6.5 6.5zm325 382.65625c0 3.59375-2.910156 6.5-6.5 6.5h-22c-3.589844 0-6.5-2.90625-6.5-6.5v-21.65625c0-3.59375 2.910156-6.5 6.5-6.5h22c3.589844 0 6.5 2.90625 6.5 6.5zm0-54.65625c0 3.589844-2.910156 6.5-6.5 6.5h-22c-3.589844 0-6.5-2.910156-6.5-6.5v-21.671875c0-3.589844 2.910156-6.5 6.5-6.5h22c3.589844 0 6.5 2.910156 6.5 6.5zm0-54.671875c0 3.589844-2.910156 6.5-6.5 6.5h-22c-3.589844 0-6.5-2.910156-6.5-6.5v-21.671875c0-3.589844 2.910156-6.5 6.5-6.5h22c3.589844 0 6.5 2.910156 6.5 6.5zm0-54.671875c0 3.59375-2.910156 6.5-6.5 6.5h-22c-3.589844 0-6.5-2.90625-6.5-6.5v-21.65625c0-3.59375 2.910156-6.5 6.5-6.5h22c3.589844 0 6.5 2.90625 6.5 6.5zm0-54.65625c0 3.589844-2.910156 6.5-6.5 6.5h-22c-3.589844 0-6.5-2.910156-6.5-6.5v-21.671875c0-3.589844 2.910156-6.5 6.5-6.5h22c3.589844 0 6.5 2.910156 6.5 6.5zm0-54.671875c0 3.589844-2.910156 6.5-6.5 6.5h-22c-3.589844 0-6.5-2.910156-6.5-6.5v-21.671875c0-3.589844 2.910156-6.5 6.5-6.5h22c3.589844 0 6.5 2.910156 6.5 6.5zm0-54.671875c0 3.59375-2.910156 6.5-6.5 6.5h-22c-3.589844 0-6.5-2.90625-6.5-6.5v-21.65625c0-3.59375 2.910156-6.5 6.5-6.5h22c3.589844 0 6.5 2.90625 6.5 6.5zm0 0" fill="#303a59"/><path d="m374.832031 382.664062h-237.664062c-3.40625 0-6.167969-2.757812-6.167969-6.164062v-241c0-3.40625 2.761719-6.167969 6.167969-6.167969h237.667969c3.402343 0 6.164062 2.761719 6.164062 6.167969v241c0 3.40625-2.761719 6.164062-6.167969 6.164062zm0 0" fill="#0c99e6"/><path d="m374.832031 129.332031h-74.046875c-.414062 1.242188-.808594 2.496094-1.171875 3.761719-1.46875 5.132812-2.492187 10.457031-3.03125 15.921875-.292969 2.953125-.449219 5.941406-.449219 8.96875v8.136719c-8.980468 4.25-15.195312 13.390625-15.195312 23.984375s6.214844 19.730469 15.195312 23.980469v101.921874c-10.785156 5.40625-19.667968 14.054688-25.472656 24.628907-.042968.085937-.089844.167969-.136718.25-.300782.558593-.59375 1.125-.882813 1.695312-.082031.167969-.164063.335938-.25.503907-.246094.503906-.488281 1.007812-.722656 1.515624-10.8125-20.773437-32.496094-34.75-57.207031-34.75h-29.777344l-17.246094-18.621093v-19.191407c20.316406-11.464843 35.054688-31.628906 39.171875-55.445312.390625.015625.785156.027344 1.179687.027344 14.648438 0 26.519532-11.871094 26.519532-26.515625 0-10.59375-6.21875-19.738281-15.199219-23.984375 0 0 .003906.003906.003906.003906v-8.136719c0-10.011719-1.636719-19.644531-4.652343-28.652343h-74.292969c-3.40625 0-6.167969 2.761718-6.167969 6.167968v241c0 3.402344 2.761719 6.164063 6.167969 6.164063h237.667969c3.40625 0 6.167968-2.761719 6.167968-6.164063v-241c-.003906-3.410156-2.765625-6.171875-6.171875-6.171875zm0 0" fill="#045bba"/><path d="m374.832031 109.332031h-237.664062c-3.40625 0-6.167969-2.761719-6.167969-6.167969v-103.164062h250v103.167969c0 3.402343-2.761719 6.164062-6.167969 6.164062zm0 0" fill="#066ae7"/><path d="m171 103.167969v-103.167969h-40v103.167969c0 3.40625 2.761719 6.167969 6.167969 6.167969h40c-3.40625-.003907-6.167969-2.765626-6.167969-6.167969zm0 0" fill="#045bba"/><path d="m381 408.828125v70.632813c-36.96875 20.71875-79.601562 32.539062-125 32.539062-29.800781 0-58.398438-5.089844-85-14.460938-13.929688-4.890624-27.300781-10.960937-40-18.078124v-70.632813c0-3.398437 2.761719-6.15625 6.171875-6.15625h237.65625c3.410156 0 6.171875 2.757813 6.171875 6.15625zm0 0" fill="#066ae7"/><path d="m177.171875 402.671875c-3.410156 0-6.171875 2.757813-6.171875 6.15625v88.710937c-13.929688-4.890624-27.300781-10.960937-40-18.078124v-70.632813c0-3.398437 2.761719-6.15625 6.171875-6.15625zm0 0" fill="#045bba"/></svg>